<svg width="60" height="60" viewBox="0 0 60 60" fill="none" xmlns="http://www.w3.org/2000/svg">
<path d="M59.9669 24.76L54.9689 5.76756C54.8786 5.42394 54.6121 5.15403 54.2695 5.05886L36.2683 0.0608388C35.934 -0.0338502 35.5738 0.0535175 35.32 0.290728L21.3202 13.2856C21.0571 13.5301 20.9453 13.8976 21.0273 14.2471L24.9037 30.6996L0.292853 55.2962C-0.0976175 55.6862 -0.0976175 56.3193 0.292853 56.7093L3.29166 59.7081C3.47909 59.896 3.73338 60.0014 3.9989 60.0014C4.26393 60.0014 4.51823 59.896 4.70614 59.7081L31.7062 32.7188C31.9649 32.4601 32.0615 32.0813 31.958 31.7304L27.1352 15.337L37.2601 6.14046L50.1788 9.83089L53.8663 23.6535L43.7556 31.9203L40.9974 31.2316L40.9803 25.295L43.8903 20.5381C44.0787 20.2296 44.086 19.8435 43.9089 19.5282C43.7322 19.2129 43.3993 19.0177 43.0376 19.0172C43.0259 19.0172 43.0118 19.0172 42.9996 19.0172H38.9772C38.6629 19.0172 38.3666 19.1656 38.1777 19.4174L35.1999 23.4158C35.0701 23.5886 34.9998 23.799 34.9998 24.0152V35.0108C34.9998 35.4413 35.2751 35.8235 35.6836 35.9597L44.68 38.9585C45.0276 39.0751 45.4112 38.9927 45.6796 38.7428L59.68 25.7479C59.9508 25.4965 60.0611 25.1173 59.9669 24.76ZM44.8279 36.8744L36.999 34.2904V24.3471L39.5029 21.0164H41.2976L39.1515 24.4921C39.0534 24.6512 39.0016 24.8342 39.0021 25.0211L39.0182 32.012C39.0197 32.4708 39.3326 32.8696 39.7782 32.9799L43.8225 33.9795C44.1319 34.0566 44.4599 33.9824 44.7059 33.7794L55.8128 24.783C56.1198 24.5345 56.2511 24.1279 56.1486 23.7468L52.1112 8.7527C52.0189 8.41348 51.7554 8.14796 51.4176 8.05278L37.267 4.05437C36.9365 3.96066 36.5807 4.04315 36.3254 4.27303L25.2146 14.2691C24.9281 14.5273 24.8154 14.927 24.9247 15.297L29.8021 31.7255L3.67823 57.5883L2.07681 56.0025L26.6032 31.7192C26.8502 31.4761 26.9522 31.1213 26.8722 30.784L22.9709 14.3564L36.2654 2.13716L53.3377 6.83549L58.0839 24.6932L44.8279 36.8744Z" fill="#F7654A"/>
</svg>
