<svg width="44" height="60" viewBox="0 0 44 60" fill="none" xmlns="http://www.w3.org/2000/svg">
<path d="M29 34.1362V16H31C32.6567 16 34 14.6567 34 13V11C34 9.34326 32.6567 8 31 8H29V3C29 1.34326 27.6567 0 26 0H18C16.3433 0 15 1.34326 15 3V8H13C11.3433 8 10 9.34326 10 11V13C10 14.6567 11.3433 16 13 16H15V34.1328C6.4375 35.1216 -0.0180686 42.3809 -2.22822e-06 51C0.00536887 55.9683 4.03174 59.9946 9 60H35C37.3882 60.0034 39.6792 59.0562 41.3677 57.3677C43.0562 55.6792 44.0034 53.3877 44 51C43.9844 42.394 37.5454 35.1553 29 34.1362ZM17 3C17 2.44775 17.4478 2 18 2H26C26.5522 2 27 2.44775 27 3V8H17V3ZM12 13V11C12 10.4478 12.4478 10 13 10H31C31.5522 10 32 10.4478 32 11V13C32 13.5522 31.5522 14 31 14H13C12.4478 14 12 13.5522 12 13ZM27 16V35C27 35.0361 27.0171 35.0659 27.02 35.1001C27.0493 35.5962 27.4424 35.9932 27.938 36.0278C32.1401 36.292 36.0361 38.3149 38.6689 41.6001C38.2778 41.4482 37.896 41.2798 37.498 41.0928C36.0933 40.3354 34.5259 39.9297 32.9302 39.9102C31.4517 39.8809 30.0005 40.3105 28.7769 41.1411C26.8809 42.4058 24.4102 42.4058 22.5142 41.1411C21.2905 40.3101 19.8389 39.8799 18.3599 39.9102C16.8794 39.8809 15.4263 40.3115 14.2002 41.1421C13.2817 41.7837 12.1831 42.1157 11.063 42.0898C9.9458 42.1157 8.84961 41.7827 7.93603 41.1392C7.45459 40.8354 6.94726 40.5747 6.41992 40.3599C9.00439 37.7954 12.4316 36.2559 16.0649 36.0278C16.5605 35.9937 16.9536 35.5967 16.9829 35.1011C16.9829 35.0659 17.0029 35.0361 17.0029 35.001V16H27ZM39.9551 55.9512C38.6411 57.2651 36.8584 58.0024 35 58H9C5.13574 57.9956 2.00439 54.8643 2 51C1.99658 47.7642 3.04687 44.6147 4.99121 42.0278C5.67285 42.1855 6.3208 42.4653 6.90283 42.854C8.12695 43.6875 9.57959 44.1196 11.0601 44.0898C12.5415 44.1196 13.9961 43.6895 15.2231 42.8579C17.1191 41.5938 19.5898 41.5938 21.4858 42.8579C24.0151 44.5015 27.2749 44.5015 29.8042 42.8579C30.7183 42.2168 31.8135 41.8853 32.9302 41.9111C34.2329 41.9316 35.5107 42.2749 36.6479 42.9111C37.7783 43.4927 39.0029 43.8687 40.2651 44.021C41.4043 46.1709 41.9995 48.5669 42 51C42.0024 52.8564 41.2671 54.6377 39.9551 55.9512Z" fill="#F7654A"/>
</svg>
